REM DIRINDEX 1\2,1\3,1\4
REM DIRNAME cjc151,folder01,folder02,folder03
TITLE ""
FILE "120 120_TOEFL_3900.mp3" MP3
  TRACK 01 AUDIO
    TITLE "2:cjc151_5204"
    INDEX 01 00:00:00
  TRACK 02 AUDIO
    TITLE "0:"
    INDEX 01 00:01:22
  TRACK 03 AUDIO
    TITLE "3:cjc151_5205"
    INDEX 01 00:03:02
  TRACK 04 AUDIO
    TITLE "0:"
    INDEX 01 00:07:13
  TRACK 05 AUDIO
    TITLE "2:cjc151_5206"
    INDEX 01 00:08:68
  TRACK 06 AUDIO
    TITLE "0:"
    INDEX 01 00:10:14
  TRACK 07 AUDIO
    TITLE "3:cjc151_5207"
    INDEX 01 00:11:70
  TRACK 08 AUDIO
    TITLE "0:"
    INDEX 01 00:15:46
  TRACK 09 AUDIO
    TITLE "2:cjc151_5208"
    INDEX 01 00:17:23
  TRACK 10 AUDIO
    TITLE "0:"
    INDEX 01 00:18:44
  TRACK 11 AUDIO
    TITLE "3:cjc151_5209"
    INDEX 01 00:20:24
  TRACK 12 AUDIO
    TITLE "0:"
    INDEX 01 00:24:53
  TRACK 13 AUDIO
    TITLE "2:cjc151_5210"
    INDEX 01 00:26:32
  TRACK 14 AUDIO
    TITLE "0:"
    INDEX 01 00:27:38
  TRACK 15 AUDIO
    TITLE "3:cjc151_5211"
    INDEX 01 00:29:19
  TRACK 16 AUDIO
    TITLE "0:"
    INDEX 01 00:32:33
  TRACK 17 AUDIO
    TITLE "2:cjc151_5212"
    INDEX 01 00:34:10
  TRACK 18 AUDIO
    TITLE "0:"
    INDEX 01 00:35:17
  TRACK 19 AUDIO
    TITLE "3:cjc151_5213"
    INDEX 01 00:36:72
  TRACK 20 AUDIO
    TITLE "0:"
    INDEX 01 00:40:72
  TRACK 21 AUDIO
    TITLE "2:cjc151_5214"
    INDEX 01 00:42:49
  TRACK 22 AUDIO
    TITLE "0:"
    INDEX 01 00:43:50
  TRACK 23 AUDIO
    TITLE "3:cjc151_5215"
    INDEX 01 00:45:30
  TRACK 24 AUDIO
    TITLE "0:"
    INDEX 01 00:49:14
  TRACK 25 AUDIO
    TITLE "2:cjc151_5216"
    INDEX 01 00:50:66
  TRACK 26 AUDIO
    TITLE "0:"
    INDEX 01 00:52:12
  TRACK 27 AUDIO
    TITLE "3:cjc151_5217"
    INDEX 01 00:53:64
  TRACK 28 AUDIO
    TITLE "0:"
    INDEX 01 00:57:39
  TRACK 29 AUDIO
    TITLE "2:cjc151_5218"
    INDEX 01 00:59:18
  TRACK 30 AUDIO
    TITLE "0:"
    INDEX 01 01:00:17
  TRACK 31 AUDIO
    TITLE "3:cjc151_5219"
    INDEX 01 01:01:70
  TRACK 32 AUDIO
    TITLE "0:"
    INDEX 01 01:05:66
  TRACK 33 AUDIO
    TITLE "2:cjc151_5220"
    INDEX 01 01:07:47
  TRACK 34 AUDIO
    TITLE "0:"
    INDEX 01 01:08:62
  TRACK 35 AUDIO
    TITLE "3:cjc151_5221"
    INDEX 01 01:10:39
  TRACK 36 AUDIO
    TITLE "0:"
    INDEX 01 01:13:61
  TRACK 37 AUDIO
    TITLE "2:cjc151_5222"
    INDEX 01 01:15:40
  TRACK 38 AUDIO
    TITLE "0:"
    INDEX 01 01:16:61
  TRACK 39 AUDIO
    TITLE "3:cjc151_5223"
    INDEX 01 01:18:41
  TRACK 40 AUDIO
    TITLE "0:"
    INDEX 01 01:22:60
  TRACK 41 AUDIO
    TITLE "2:cjc151_5224"
    INDEX 01 01:24:37
  TRACK 42 AUDIO
    TITLE "0:"
    INDEX 01 01:25:49
  TRACK 43 AUDIO
    TITLE "3:cjc151_5225"
    INDEX 01 01:27:26
  TRACK 44 AUDIO
    TITLE "0:"
    INDEX 01 01:31:16
  TRACK 45 AUDIO
    TITLE "2:cjc151_5226"
    INDEX 01 01:33:05
  TRACK 46 AUDIO
    TITLE "0:"
    INDEX 01 01:34:26
  TRACK 47 AUDIO
    TITLE "3:cjc151_5227"
    INDEX 01 01:36:05
  TRACK 48 AUDIO
    TITLE "0:"
    INDEX 01 01:40:70
  TRACK 49 AUDIO
    TITLE "2:cjc151_5228"
    INDEX 01 01:42:49
  TRACK 50 AUDIO
    TITLE "0:"
    INDEX 01 01:43:62
  TRACK 51 AUDIO
    TITLE "3:cjc151_5229"
    INDEX 01 01:45:42
  TRACK 52 AUDIO
    TITLE "0:"
    INDEX 01 01:49:22
  TRACK 53 AUDIO
    TITLE "2:cjc151_5230"
    INDEX 01 01:51:01
  TRACK 54 AUDIO
    TITLE "0:"
    INDEX 01 01:52:04
  TRACK 55 AUDIO
    TITLE "3:cjc151_5231"
    INDEX 01 01:53:57
  TRACK 56 AUDIO
    TITLE "0:"
    INDEX 01 01:57:70
  TRACK 57 AUDIO
    TITLE "2:cjc151_5232"
    INDEX 01 01:59:50
  TRACK 58 AUDIO
    TITLE "0:"
    INDEX 01 02:00:61
  TRACK 59 AUDIO
    TITLE "3:cjc151_5233"
    INDEX 01 02:02:38
  TRACK 60 AUDIO
    TITLE "0:"
    INDEX 01 02:05:36
  TRACK 61 AUDIO
    TITLE "2:cjc151_5234"
    INDEX 01 02:07:14
  TRACK 62 AUDIO
    TITLE "0:"
    INDEX 01 02:08:21
  TRACK 63 AUDIO
    TITLE "3:cjc151_5235"
    INDEX 01 02:09:73
  TRACK 64 AUDIO
    TITLE "0:"
    INDEX 01 02:13:34
  TRACK 65 AUDIO
    TITLE "2:cjc151_5236"
    INDEX 01 02:15:13
  TRACK 66 AUDIO
    TITLE "0:"
    INDEX 01 02:16:24
  TRACK 67 AUDIO
    TITLE "3:cjc151_5237"
    INDEX 01 02:18:04
  TRACK 68 AUDIO
    TITLE "0:"
    INDEX 01 02:22:66
  TRACK 69 AUDIO
    TITLE "2:cjc151_5238"
    INDEX 01 02:24:44
  TRACK 70 AUDIO
    TITLE "0:"
    INDEX 01 02:25:51
  TRACK 71 AUDIO
    TITLE "3:cjc151_5239"
    INDEX 01 02:27:32
  TRACK 72 AUDIO
    TITLE "0:"
    INDEX 01 02:31:69
  TRACK 73 AUDIO
    TITLE "2:cjc151_5240"
    INDEX 01 02:33:48
  TRACK 74 AUDIO
    TITLE "0:"
    INDEX 01 02:34:54
  TRACK 75 AUDIO
    TITLE "3:cjc151_5241"
    INDEX 01 02:36:33
  TRACK 76 AUDIO
    TITLE "0:"
    INDEX 01 02:40:62
  TRACK 77 AUDIO
    TITLE "2:cjc151_5242"
    INDEX 01 02:42:42
  TRACK 78 AUDIO
    TITLE "0:"
    INDEX 01 02:43:49
  TRACK 79 AUDIO
    TITLE "3:cjc151_5243"
    INDEX 01 02:45:26
  TRACK 80 AUDIO
    TITLE "0:"
    INDEX 01 02:48:48
  TRACK 81 AUDIO
    TITLE "2:cjc151_5244"
    INDEX 01 02:50:37
  TRACK 82 AUDIO
    TITLE "0:"
    INDEX 01 02:51:39
  TRACK 83 AUDIO
    TITLE "3:cjc151_5245"
    INDEX 01 02:53:16
  TRACK 84 AUDIO
    TITLE "0:"
    INDEX 01 02:56:53
  TRACK 85 AUDIO
    TITLE "2:cjc151_5246"
    INDEX 01 02:58:35
  TRACK 86 AUDIO
    TITLE "0:"
    INDEX 01 02:59:44
  TRACK 87 AUDIO
    TITLE "3:cjc151_5247"
    INDEX 01 03:01:23
  TRACK 88 AUDIO
    TITLE "0:"
    INDEX 01 03:05:21
